<svg id="logo" xmlns="http://www.w3.org/2000/svg" viewBox="0 0 95.33 73.45">
  <defs>
    <style>
      .cls-1,
      .cls-3,
      .cls-5 {
        fill: #fff;
      }

      .cls-1 {
        stroke: #231f20;
        stroke-miterlimit: 10;
      }

      .cls-2 {
        fill: #f4f4f5;
      }

      .cls-3 {
        font-size: 24.27px;
        font-family: SegoeScript, Segoe Script;
      }

      .cls-4 {
        fill: #7659a5;
      }
    </style>
  </defs>
  <path class="cls-1" d="M134.8,274" transform="translate(-134.8 -284.43)" />
  <path class="cls-1" d="M222.18,231.43" transform="translate(-134.8 -284.43)" />
  <path class="cls-1" d="M165.9,227.71" transform="translate(-134.8 -284.43)" />
  <path class="cls-1" d="M165.61,320" transform="translate(-134.8 -284.43)" />
  <path class="cls-1" d="M206.18,269.71" transform="translate(-134.8 -284.43)" />
  <path class="cls-2"
    d="M192.89,318.76c-.63,10.36-1.65,22.76-3.35,36.81-.53-4.32-1.25-10-2.17-16.57-.44-3.14-.12-.75-1.94-12.74-1.55-10.22-2.86-12.66-4-16.71-1.36-4.89-4.93-7.74-7.69-7.36-3.32.46-4.67,5.53-4.82,6.1-1.54,5.78,2.42,10.76,3.24,11.76a5.41,5.41,0,0,1-1.77,6.25,6.42,6.42,0,0,1-6.51.74,20.65,20.65,0,0,1-3.75-4.05,19.41,19.41,0,0,1-3.15-7.36c-2.7-2.63-5.93-4-8.09-3.13-3.06,1.26-3.14,6.8-2,10.4,1.59,5,5.71,7.55,12.62,11.87,4.13,2.58,11.11,7,21.3,13.44l-19.52-7.36a80.89,80.89,0,0,1-14.6-6.63c-7.26-4.35-9.13-7.34-9.86-8.65a16.78,16.78,0,0,1-2-9.94,16.52,16.52,0,0,1,3.16-7.73,12.52,12.52,0,0,1,7.88-5.34,13.48,13.48,0,0,1,10.22,2.11,34.09,34.09,0,0,1,.63-5.79c.89-4.52,1.59-8.67,4.73-11.23a15.39,15.39,0,0,1,15.39-2,31,31,0,0,1,12.62,11.05C193.88,303.72,193.38,310.68,192.89,318.76Z"
    transform="translate(-134.8 -284.43)" />
  <path class="cls-2" d="M192.14,356.78" transform="translate(-134.8 -284.43)" /><text class="cls-3"
    transform="translate(57.35 61.43) scale(0.88 1)">ine</text>
  <path class="cls-4" d="M346.71,293.71" transform="translate(-134.8 -284.43)" />
  <path class="cls-5" d="M199.49,332.48l-4,.55v0l2.14-.27C198.27,332.64,198.88,332.57,199.49,332.48Z"
    transform="translate(-134.8 -284.43)" />
  <path class="cls-5"
    d="M203.15,329.91a2.69,2.69,0,0,1-.47,1.53,1.73,1.73,0,0,1-1.16.76l-1.72.24-.31,0c-.61.09-1.22.16-1.84.24l-2.14.27,0-6a2.28,2.28,0,0,1,2.13-1.94,2.33,2.33,0,0,1,1.52.27,1.26,1.26,0,0,1,.63,1.08l0,1.88,1.73-.24C202.4,328,203.14,328.78,203.15,329.91Z"
    transform="translate(-134.8 -284.43)" />
</svg>